<?xml version="1.0" encoding="UTF-8"?> <svg xmlns="http://www.w3.org/2000/svg" width="785" height="198" viewBox="0 0 785 198" fill="none"><g clip-path="url(#clip0_132_4097)"><path d="M50.4403 135.912C35.4207 135.912 23.2599 131.214 13.9581 121.818C4.6562 112.326 0 99.8924 0 84.5049C0 69.1174 4.6562 56.6834 13.9581 47.1923C23.2599 37.7959 35.4207 33.0977 50.4403 33.0977C65.4599 33.0977 77.6207 37.7959 86.9225 47.1923C96.2244 56.6834 100.881 69.1174 100.881 84.5049C100.881 99.8924 96.2244 112.326 86.9225 121.818C77.6207 131.214 65.4599 135.912 50.4403 135.912ZM31.5107 107.302C36.209 112.831 42.5153 115.595 50.4403 115.595C58.3653 115.595 64.6296 112.831 69.5065 107.302C74.2993 101.868 76.6958 94.2693 76.6958 84.5049C76.6958 74.7406 74.2993 67.1414 69.5065 61.7075C64.6191 56.1789 58.2602 53.4146 50.4403 53.4146C42.6204 53.4146 36.209 56.1789 31.5107 61.7075C26.7179 67.1414 24.3215 74.7406 24.3215 84.5049C24.3215 94.2693 26.7179 101.868 31.5107 107.302Z" fill="white"></path><path d="M248.197 49.3994L256.49 35.3047H282.199L245.717 95.4147V133.694H222.362V95.4147L202.854 59.7991L218.082 45.2887L220.428 49.536C223.56 54.97 225.957 59.1217 227.617 61.97C228.353 63.3469 229.257 64.9656 230.308 66.8049C231.37 68.6443 232.221 70.1263 232.862 71.2299C233.503 72.3335 234.06 73.2584 234.523 73.9941C239.683 64.5031 244.245 56.3048 248.208 49.3994H248.197Z" fill="white"></path><path d="M286.75 35.3047H370.635V56.1682H340.375V133.694H316.884V56.1787H286.76V35.3152L286.75 35.3047Z" fill="white"></path><path d="M454.793 109.236L455.487 123.058C455.582 127.482 456.496 131.025 458.251 133.694H434.203C432.732 130.93 431.943 127.335 431.849 122.91L431.439 111.853C431.25 106.419 430.031 102.667 427.781 100.586C425.522 98.5153 421.906 97.4748 416.934 97.4748H397.868V133.684H374.514V35.3047H421.086C432.606 35.3047 441.424 37.8588 447.552 42.9774C453.679 48.0856 456.738 55.0225 456.738 63.7779C456.738 75.1083 451.441 82.8966 440.846 87.1324C445.912 88.7931 449.433 91.3261 451.42 94.7315C453.396 98.137 454.531 102.982 454.804 109.247L454.793 109.236ZM397.858 53.961V79.9431H418.448C422.957 79.9431 426.467 78.8185 428.948 76.5587C431.439 74.299 432.679 71.0512 432.679 66.8154C432.679 58.2493 427.792 53.961 418.027 53.961H397.847H397.858Z" fill="white"></path><path d="M509.511 135.912C494.492 135.912 482.331 131.214 473.029 121.818C463.727 112.326 459.071 99.8924 459.071 84.5049C459.071 69.1174 463.727 56.6834 473.029 47.1923C482.331 37.7959 494.492 33.0977 509.511 33.0977C524.531 33.0977 536.691 37.7959 545.993 47.1923C555.295 56.6834 559.951 69.1174 559.951 84.5049C559.951 99.8924 555.295 112.326 545.993 121.818C536.691 131.214 524.531 135.912 509.511 135.912ZM490.582 107.302C495.28 112.831 501.586 115.595 509.511 115.595C517.436 115.595 523.7 112.831 528.577 107.302C533.37 101.868 535.767 94.2693 535.767 84.5049C535.767 74.7406 533.37 67.1414 528.577 61.7075C523.69 56.1789 517.331 53.4146 509.511 53.4146C501.691 53.4146 495.28 56.1789 490.582 61.7075C485.789 67.1414 483.392 74.7406 483.392 84.5049C483.392 94.2693 485.789 101.868 490.582 107.302Z" fill="white"></path><path d="M629.879 55.8949V35.3047H652.13V133.694H626.978L602.93 94.4477C595.562 82.1924 590.443 73.2584 587.595 67.6352C587.963 80.2585 588.152 95.4147 588.152 113.104V133.694H565.901V35.3047H591.053L615.101 74.5512C622.006 85.9762 627.125 95.0048 630.436 101.637C630.068 88.8351 629.879 73.5842 629.879 55.8949Z" fill="white"></path><path d="M682.81 133.705H659.455V35.3047H682.81V133.694V133.705Z" fill="white"></path><path d="M737.812 135.912C723.16 135.912 711.325 131.267 702.297 121.954C693.268 112.652 688.749 100.166 688.749 84.5049C688.749 68.8442 693.173 56.1263 702.013 46.9191C710.863 37.7118 722.792 33.0977 737.801 33.0977C749.962 33.0977 760.284 36.3244 768.755 42.7674C777.416 49.305 782.619 58.5648 784.374 70.5469H760.746C759.275 65.0183 756.531 60.7615 752.527 57.766C748.522 54.7705 743.614 53.278 737.812 53.278C729.887 53.278 723.78 56.0002 719.503 61.4342C715.214 66.8682 713.081 74.5619 713.081 84.5154C713.081 94.469 715.225 102.163 719.503 107.597C723.791 113.031 729.887 115.753 737.812 115.753C743.898 115.753 749.048 114.008 753.294 110.498C757.53 106.998 760.199 102.11 761.314 95.8458H784.668C783.197 108.564 778.173 118.423 769.606 125.423C760.946 132.423 750.351 135.923 737.822 135.923L737.812 135.912Z" fill="white"></path><path d="M76.0498 0.341309H98.7318L244.631 197.099H221.604L76.0498 0.341309Z" fill="#009FE3" stroke="#009FE3" stroke-width="3.95425" stroke-miterlimit="10"></path><path d="M213.645 38.3992L185.419 38.2144L84.8716 131.382L113.443 131.566L213.645 38.3992Z" fill="#009FE3" stroke="#009FE3" stroke-width="3.95425" stroke-miterlimit="10"></path><path d="M406.185 180.161H401.161L399.982 176.68H391.674L390.524 180.161H385.668L393.022 160.177H398.663L406.185 180.161ZM394.144 169.299L392.993 172.723H398.635L397.484 169.299C397.129 168.288 396.567 166.604 395.8 164.247C394.808 167.297 394.256 168.981 394.144 169.299Z" fill="white"></path><path d="M429.756 165.341C431.347 165.341 432.591 165.819 433.489 166.773C434.387 167.708 434.836 169.037 434.836 170.758V180.161H430.458V171.516C430.458 169.888 429.737 169.074 428.297 169.074C427.529 169.074 426.921 169.336 426.472 169.86C426.023 170.384 425.799 171.151 425.799 172.162V180.161H421.42V171.516C421.42 169.888 420.7 169.074 419.259 169.074C418.492 169.074 417.874 169.336 417.407 169.86C416.958 170.384 416.733 171.151 416.733 172.162V180.161H412.355V165.678H416.621V167.727C417.687 166.137 419.063 165.341 420.747 165.341C422.917 165.341 424.414 166.211 425.237 167.952C426.416 166.211 427.922 165.341 429.756 165.341Z" fill="white"></path><path d="M450.852 173.34V174.211H440.13C440.28 175.202 440.645 175.96 441.225 176.484C441.805 177.008 442.544 177.27 443.442 177.27C444.864 177.27 445.837 176.727 446.361 175.642H450.515C450.122 177.139 449.29 178.327 448.017 179.206C446.745 180.067 445.22 180.498 443.442 180.498C441.197 180.498 439.382 179.805 437.997 178.421C436.613 177.036 435.92 175.202 435.92 172.919C435.92 170.618 436.603 168.784 437.969 167.418C439.316 166.034 441.122 165.341 443.386 165.341C445.631 165.341 447.446 166.062 448.831 167.503C450.178 168.962 450.852 170.908 450.852 173.34ZM443.33 168.569C441.534 168.569 440.477 169.523 440.158 171.432H446.558C446.408 170.534 446.052 169.832 445.491 169.327C444.93 168.822 444.209 168.569 443.33 168.569Z" fill="white"></path><path d="M469.46 165.341C471.05 165.341 472.295 165.819 473.193 166.773C474.091 167.708 474.54 169.037 474.54 170.758V180.161H470.162V171.516C470.162 169.888 469.441 169.074 468 169.074C467.233 169.074 466.625 169.336 466.176 169.86C465.727 170.384 465.502 171.151 465.502 172.162V180.161H461.124V171.516C461.124 169.888 460.404 169.074 458.963 169.074C458.196 169.074 457.578 169.336 457.11 169.86C456.661 170.384 456.437 171.151 456.437 172.162V180.161H452.058V165.678H456.325V167.727C457.391 166.137 458.766 165.341 460.45 165.341C462.621 165.341 464.118 166.211 464.941 167.952C466.12 166.211 467.626 165.341 469.46 165.341Z" fill="white"></path><path d="M484.858 165.341C486.804 165.341 488.348 166.024 489.489 167.39C490.612 168.756 491.173 170.599 491.173 172.919C491.173 175.24 490.612 177.083 489.489 178.449C488.348 179.815 486.804 180.498 484.858 180.498C482.931 180.498 481.471 179.74 480.48 178.224V180.161H476.213V160.177H480.592V167.446C481.584 166.043 483.006 165.341 484.858 165.341ZM483.651 176.989C484.624 176.989 485.382 176.634 485.925 175.923C486.467 175.193 486.739 174.154 486.739 172.807C486.739 170.169 485.709 168.85 483.651 168.85C481.574 168.85 480.536 170.206 480.536 172.919C480.536 175.633 481.574 176.989 483.651 176.989Z" fill="white"></path><path d="M506.598 173.34V174.211H495.876C496.026 175.202 496.391 175.96 496.971 176.484C497.551 177.008 498.29 177.27 499.188 177.27C500.61 177.27 501.583 176.727 502.107 175.642H506.261C505.868 177.139 505.035 178.327 503.763 179.206C502.491 180.067 500.966 180.498 499.188 180.498C496.943 180.498 495.128 179.805 493.743 178.421C492.358 177.036 491.666 175.202 491.666 172.919C491.666 170.618 492.349 168.784 493.715 167.418C495.062 166.034 496.868 165.341 499.132 165.341C501.377 165.341 503.192 166.062 504.577 167.503C505.924 168.962 506.598 170.908 506.598 173.34ZM499.076 168.569C497.279 168.569 496.222 169.523 495.904 171.432H502.303C502.154 170.534 501.798 169.832 501.237 169.327C500.676 168.822 499.955 168.569 499.076 168.569Z" fill="white"></path><path d="M516.196 165.454C516.271 165.454 516.589 165.472 517.15 165.51V169.495H516.028C513.464 169.495 512.183 170.805 512.183 173.425V180.161H507.804V165.678H512.07V168.373C512.744 166.427 514.119 165.454 516.196 165.454Z" fill="white"></path><path d="M536.427 178.421C535.043 179.805 533.199 180.498 530.898 180.498C528.597 180.498 526.753 179.805 525.369 178.421C523.984 177.036 523.292 175.202 523.292 172.919C523.292 170.618 523.984 168.775 525.369 167.39C526.735 166.024 528.578 165.341 530.898 165.341C533.218 165.341 535.061 166.024 536.427 167.39C537.793 168.756 538.476 170.599 538.476 172.919C538.476 175.221 537.793 177.055 536.427 178.421ZM530.898 176.989C531.908 176.989 532.685 176.643 533.228 175.951C533.77 175.258 534.041 174.248 534.041 172.919C534.041 171.591 533.77 170.581 533.228 169.888C532.685 169.196 531.908 168.85 530.898 168.85C529.869 168.85 529.083 169.196 528.54 169.888C527.998 170.581 527.726 171.591 527.726 172.919C527.726 174.248 527.998 175.258 528.54 175.951C529.083 176.643 529.869 176.989 530.898 176.989Z" fill="white"></path><path d="M547.523 163.433H546.344C545.184 163.433 544.604 163.947 544.604 164.977V165.678H547.467V168.878H544.604V180.161H540.226V168.878H538.064V165.678H540.226V164.836C540.226 163.377 540.656 162.217 541.517 161.356C542.396 160.495 543.706 160.065 545.446 160.065C546.101 160.065 546.793 160.102 547.523 160.177V163.433Z" fill="white"></path><path d="M567.494 164.359V160.177H572.013V180.161H566.904L562.021 172.19C560.524 169.701 559.485 167.886 558.905 166.745C558.98 169.308 559.018 172.386 559.018 175.979V180.161H554.499V160.177H559.607L564.491 168.148C565.894 170.468 566.932 172.302 567.606 173.649C567.531 171.048 567.494 167.952 567.494 164.359Z" fill="#009FE3"></path><path d="M578.957 180.161H574.214V160.177H578.957V180.161Z" fill="#009FE3"></path><path d="M590.278 180.61C587.302 180.61 584.898 179.665 583.064 177.775C581.231 175.885 580.314 173.35 580.314 170.169C580.314 166.951 581.212 164.406 583.008 162.535C584.805 160.664 587.228 159.728 590.278 159.728C592.747 159.728 594.843 160.383 596.565 161.693C598.323 163.021 599.381 164.902 599.736 167.334H594.937C594.637 166.211 594.076 165.351 593.253 164.752C592.448 164.135 591.456 163.826 590.278 163.826C588.668 163.826 587.424 164.378 586.545 165.482C585.684 166.586 585.254 168.148 585.254 170.169C585.254 172.19 585.684 173.752 586.545 174.856C587.424 175.96 588.668 176.512 590.278 176.512C591.513 176.512 592.56 176.157 593.421 175.446C594.282 174.734 594.824 173.743 595.049 172.47H599.792C599.493 175.053 598.473 177.055 596.733 178.477C594.974 179.899 592.822 180.61 590.278 180.61Z" fill="#009FE3"></path><path d="M617.929 177.747C616.04 179.656 613.57 180.61 610.52 180.61C607.47 180.61 605 179.656 603.11 177.747C601.22 175.82 600.275 173.294 600.275 170.169C600.275 167.044 601.22 164.518 603.11 162.591C605 160.682 607.47 159.728 610.52 159.728C613.57 159.728 616.04 160.682 617.929 162.591C619.819 164.518 620.764 167.044 620.764 170.169C620.764 173.294 619.819 175.82 617.929 177.747ZM606.675 174.8C607.629 175.923 608.911 176.484 610.52 176.484C612.11 176.484 613.401 175.923 614.393 174.8C615.366 173.696 615.852 172.152 615.852 170.169C615.852 168.186 615.366 166.642 614.393 165.538C613.401 164.415 612.11 163.854 610.52 163.854C608.911 163.854 607.629 164.415 606.675 165.538C605.702 166.642 605.215 168.186 605.215 170.169C605.215 172.152 605.702 173.696 606.675 174.8Z" fill="#009FE3"></path><path d="M634.582 168.681L637.192 160.177H644.293V180.161H639.775V174.295C639.775 170.571 639.831 167.353 639.943 164.64C639.587 166.006 639.138 167.521 638.596 169.187L635.143 180.161H631.27L627.818 169.187C627.406 167.858 626.967 166.352 626.499 164.668C626.592 167.811 626.639 171.02 626.639 174.295V180.161H622.12V160.177H629.221L631.86 168.766C632.215 169.982 632.674 171.638 633.235 173.733C633.684 171.956 634.133 170.272 634.582 168.681Z" fill="#009FE3"></path><path d="M665.249 180.161H660.225L659.047 176.68H650.739L649.588 180.161H644.732L652.086 160.177H657.727L665.249 180.161ZM653.209 169.299L652.058 172.723H657.699L656.549 169.299C656.193 168.288 655.632 166.604 654.865 164.247C653.873 167.297 653.321 168.981 653.209 169.299Z" fill="#009FE3"></path><path d="M661.852 160.177H678.889V164.415H672.742V180.161H667.971V164.415H661.852V160.177Z" fill="#009FE3"></path><path d="M684.556 180.161H679.812V160.177H684.556V180.161Z" fill="#009FE3"></path><path d="M695.876 180.61C692.901 180.61 690.497 179.665 688.663 177.775C686.829 175.885 685.912 173.35 685.912 170.169C685.912 166.951 686.811 164.406 688.607 162.535C690.403 160.664 692.826 159.728 695.876 159.728C698.346 159.728 700.442 160.383 702.163 161.693C703.922 163.021 704.979 164.902 705.335 167.334H700.535C700.236 166.211 699.675 165.351 698.851 164.752C698.047 164.135 697.055 163.826 695.876 163.826C694.267 163.826 693.023 164.378 692.143 165.482C691.283 166.586 690.852 168.148 690.852 170.169C690.852 172.19 691.283 173.752 692.143 174.856C693.023 175.96 694.267 176.512 695.876 176.512C697.111 176.512 698.159 176.157 699.02 175.446C699.88 174.734 700.423 173.743 700.648 172.47H705.391C705.091 175.053 704.072 177.055 702.332 178.477C700.573 179.899 698.421 180.61 695.876 180.61Z" fill="#009FE3"></path><path d="M716.595 172.723V169.018H725.801V180.161H722.49L721.928 177.522C720.581 179.581 718.42 180.61 715.445 180.61C712.545 180.61 710.224 179.656 708.484 177.747C706.744 175.876 705.874 173.35 705.874 170.169C705.874 166.951 706.781 164.406 708.596 162.535C710.393 160.664 712.863 159.728 716.006 159.728C718.607 159.728 720.768 160.374 722.49 161.665C724.23 162.974 725.249 164.724 725.549 166.913H720.693C720.413 165.94 719.87 165.182 719.065 164.64C718.261 164.097 717.25 163.826 716.034 163.826C714.406 163.826 713.125 164.387 712.189 165.51C711.272 166.632 710.814 168.186 710.814 170.169C710.814 172.152 711.291 173.705 712.245 174.828C713.218 175.951 714.556 176.512 716.259 176.512C717.494 176.512 718.551 176.166 719.43 175.474C720.328 174.763 720.862 173.846 721.03 172.723H716.595Z" fill="white"></path><path d="M735.886 165.454C735.961 165.454 736.279 165.472 736.84 165.51V169.495H735.717C733.154 169.495 731.872 170.805 731.872 173.425V180.161H727.494V165.678H731.76V168.373C732.434 166.427 733.809 165.454 735.886 165.454Z" fill="white"></path><path d="M749.778 178.421C748.393 179.805 746.55 180.498 744.248 180.498C741.947 180.498 740.104 179.805 738.719 178.421C737.335 177.036 736.642 175.202 736.642 172.919C736.642 170.618 737.335 168.775 738.719 167.39C740.085 166.024 741.928 165.341 744.248 165.341C746.569 165.341 748.412 166.024 749.778 167.39C751.144 168.756 751.827 170.599 751.827 172.919C751.827 175.221 751.144 177.055 749.778 178.421ZM744.248 176.989C745.259 176.989 746.035 176.643 746.578 175.951C747.121 175.258 747.392 174.248 747.392 172.919C747.392 171.591 747.121 170.581 746.578 169.888C746.035 169.196 745.259 168.85 744.248 168.85C743.219 168.85 742.433 169.196 741.891 169.888C741.348 170.581 741.077 171.591 741.077 172.919C741.077 174.248 741.348 175.258 741.891 175.951C742.433 176.643 743.219 176.989 744.248 176.989Z" fill="white"></path><path d="M762.074 173.762V165.678H766.453V180.161H762.187V178.112C761.064 179.702 759.548 180.498 757.64 180.498C756.106 180.498 754.88 180.039 753.963 179.122C753.065 178.187 752.616 176.868 752.616 175.165V165.678H756.994V174.295C756.994 175.941 757.771 176.765 759.324 176.765C760.11 176.765 760.765 176.503 761.289 175.979C761.813 175.455 762.074 174.716 762.074 173.762Z" fill="white"></path><path d="M776.782 165.341C778.728 165.341 780.271 166.024 781.413 167.39C782.535 168.756 783.097 170.599 783.097 172.919C783.097 175.24 782.535 177.083 781.413 178.449C780.271 179.815 778.728 180.498 776.782 180.498C774.929 180.498 773.507 179.796 772.516 178.393V185.662H768.137V165.678H772.403V167.615C773.395 166.099 774.855 165.341 776.782 165.341ZM775.575 176.989C776.548 176.989 777.306 176.634 777.848 175.923C778.391 175.193 778.662 174.154 778.662 172.807C778.662 170.169 777.633 168.85 775.575 168.85C773.498 168.85 772.459 170.206 772.459 172.919C772.459 175.633 773.498 176.989 775.575 176.989Z" fill="white"></path></g><defs><clipPath id="clip0_132_4097"><rect width="784.668" height="196.758" fill="white" transform="translate(0 0.341309)"></rect></clipPath></defs></svg> 